<svg width="592" height="396" viewBox="0 0 592 396" fill="none" xmlns="http://www.w3.org/2000/svg">
<path fill-rule="evenodd" clip-rule="evenodd" d="M150 395.082C226.027 319.055 300 240.274 300 160.836C300 81.3974 232.843 17 150 17C67.1573 17 0 81.3974 0 160.836C0 240.274 100.685 345.767 150 395.082ZM152.055 226.589C188.369 226.589 217.808 196.23 217.808 158.781C217.808 121.332 188.369 90.9728 152.055 90.9728C115.74 90.9728 86.3013 121.332 86.3013 158.781C86.3013 196.23 115.74 226.589 152.055 226.589Z" fill="#1E1E1E"/>
<path fill-rule="evenodd" clip-rule="evenodd" d="M400 395.082C476.027 319.055 550 240.274 550 160.836C550 81.3974 482.843 17 400 17C317.157 17 250 81.3974 250 160.836C250 240.274 350.685 345.767 400 395.082ZM402.055 226.589C438.369 226.589 467.808 196.23 467.808 158.781C467.808 121.332 438.369 90.9728 402.055 90.9728C365.74 90.9728 336.301 121.332 336.301 158.781C336.301 196.23 365.74 226.589 402.055 226.589Z" fill="#1E1E1E"/>
<path fill-rule="evenodd" clip-rule="evenodd" d="M192 378.082C268.027 302.055 342 223.274 342 143.836C342 64.3974 274.843 0 192 0C109.157 0 42 64.3974 42 143.836C42 223.274 142.685 328.767 192 378.082ZM194.055 209.589C230.369 209.589 259.808 179.23 259.808 141.781C259.808 104.332 230.369 73.9728 194.055 73.9728C157.74 73.9728 128.301 104.332 128.301 141.781C128.301 179.23 157.74 209.589 194.055 209.589Z" fill="white"/>
<path fill-rule="evenodd" clip-rule="evenodd" d="M442 378.082C518.027 302.055 592 223.274 592 143.836C592 64.3974 524.843 0 442 0C359.157 0 292 64.3974 292 143.836C292 223.274 392.685 328.767 442 378.082ZM444.055 209.589C480.369 209.589 509.808 179.23 509.808 141.781C509.808 104.332 480.369 73.9728 444.055 73.9728C407.74 73.9728 378.301 104.332 378.301 141.781C378.301 179.23 407.74 209.589 444.055 209.589Z" fill="white"/>
</svg>
