<svg width="628" height="337" viewBox="0 0 628 337" fill="none" xmlns="http://www.w3.org/2000/svg">
<g filter="url(#filter0_f_12_105)">
<circle cx="328.5" cy="224.5" r="108.5" fill="#FDCBA9"/>
</g>
<path d="M17.7082 234.657V55.4567H59.6922L133.42 165.281V55.4567H174.636V234.657H132.652L58.7962 123.297V234.657H17.7082Z" fill="#1E1E1E"/>
<path fill-rule="evenodd" clip-rule="evenodd" d="M271.588 276.677C309.602 238.664 346.588 199.273 346.588 159.554C346.588 119.835 313.01 87.6362 271.588 87.6362C230.167 87.6362 196.588 119.835 196.588 159.554C196.588 199.273 246.931 252.02 271.588 276.677ZM272.616 192.431C290.773 192.431 305.492 177.251 305.492 158.527C305.492 139.802 290.773 124.623 272.616 124.623C254.458 124.623 239.739 139.802 239.739 158.527C239.739 177.251 254.458 192.431 272.616 192.431Z" fill="#1E1E1E"/>
<path fill-rule="evenodd" clip-rule="evenodd" d="M385.588 276.677C423.602 238.664 460.588 199.273 460.588 159.554C460.588 119.835 427.01 87.6362 385.588 87.6362C344.167 87.6362 310.588 119.835 310.588 159.554C310.588 199.273 360.931 252.02 385.588 276.677ZM386.616 192.431C404.773 192.431 419.492 177.251 419.492 158.527C419.492 139.802 404.773 124.623 386.616 124.623C368.458 124.623 353.739 139.802 353.739 158.527C353.739 177.251 368.458 192.431 386.616 192.431Z" fill="#1E1E1E"/>
<path d="M477.996 234.657V50.3367H519.98V147.361L559.276 104.097H607.916L562.22 156.833L612.012 234.657H562.348L531.756 184.225L519.98 196.769V234.657H477.996Z" fill="#1E1E1E"/>
<path d="M33.5318 222.343V43.1433H75.5158L149.244 152.967V43.1433H190.46V222.343H148.476L74.6198 110.983V222.343H33.5318Z" fill="white"/>
<path fill-rule="evenodd" clip-rule="evenodd" d="M287.412 264.364C325.426 226.35 362.412 186.96 362.412 147.241C362.412 107.521 328.833 75.3227 287.412 75.3227C245.99 75.3227 212.412 107.521 212.412 147.241C212.412 186.96 262.754 239.706 287.412 264.364ZM288.439 180.117C306.597 180.117 321.316 164.938 321.316 146.213C321.316 127.489 306.597 112.309 288.439 112.309C270.282 112.309 255.563 127.489 255.563 146.213C255.563 164.938 270.282 180.117 288.439 180.117Z" fill="white"/>
<path fill-rule="evenodd" clip-rule="evenodd" d="M401.412 264.364C439.426 226.35 476.412 186.96 476.412 147.241C476.412 107.521 442.833 75.3227 401.412 75.3227C359.99 75.3227 326.412 107.521 326.412 147.241C326.412 186.96 376.754 239.706 401.412 264.364ZM402.439 180.117C420.597 180.117 435.316 164.938 435.316 146.213C435.316 127.489 420.597 112.309 402.439 112.309C384.282 112.309 369.563 127.489 369.563 146.213C369.563 164.938 384.282 180.117 402.439 180.117Z" fill="white"/>
<path d="M493.82 222.343V38.0233H535.804V135.047L575.1 91.7833H623.74L578.044 144.519L627.836 222.343H578.172L547.58 171.911L535.804 184.455V222.343H493.82Z" fill="white"/>
<defs>
<filter id="filter0_f_12_105" x="216" y="112" width="225" height="225" filterUnits="userSpaceOnUse" color-interpolation-filters="sRGB">
<feFlood flood-opacity="0" result="BackgroundImageFix"/>
<feBlend mode="normal" in="SourceGraphic" in2="BackgroundImageFix" result="shape"/>
<feGaussianBlur stdDeviation="2" result="effect1_foregroundBlur_12_105"/>
</filter>
</defs>
</svg>
