<svg width="613" height="301" viewBox="0 0 613 301" fill="none" xmlns="http://www.w3.org/2000/svg">
<path d="M0.50971 245.485V66.2849H42.4937L116.222 176.109V66.2849H157.438V245.485H115.454L41.5977 134.125V245.485H0.50971Z" fill="#1E1E1E"/>
<path fill-rule="evenodd" clip-rule="evenodd" d="M254.39 287.505C292.403 249.492 329.39 210.101 329.39 170.382C329.39 130.663 295.811 98.4644 254.39 98.4644C212.968 98.4644 179.39 130.663 179.39 170.382C179.39 210.101 229.732 262.848 254.39 287.505ZM255.417 203.259C273.574 203.259 288.294 188.08 288.294 169.355C288.294 150.63 273.574 135.451 255.417 135.451C237.26 135.451 222.54 150.63 222.54 169.355C222.54 188.08 237.26 203.259 255.417 203.259Z" fill="#1E1E1E"/>
<path fill-rule="evenodd" clip-rule="evenodd" d="M368.39 287.505C406.403 249.492 443.39 210.101 443.39 170.382C443.39 130.663 409.811 98.4644 368.39 98.4644C326.968 98.4644 293.39 130.663 293.39 170.382C293.39 210.101 343.732 262.848 368.39 287.505ZM369.417 203.259C387.574 203.259 402.294 188.08 402.294 169.355C402.294 150.63 387.574 135.451 369.417 135.451C351.26 135.451 336.54 150.63 336.54 169.355C336.54 188.08 351.26 203.259 369.417 203.259Z" fill="#1E1E1E"/>
<path d="M460.798 245.485V61.1649H502.782V158.189L542.078 114.925H590.718L545.022 167.661L594.814 245.485H545.15L514.558 195.053L502.782 207.597V245.485H460.798Z" fill="#1E1E1E"/>
<path d="M17.7302 235.515V56.3151H59.7142L133.442 166.139V56.3151H174.658V235.515H132.674L58.8182 124.155V235.515H17.7302Z" fill="#FFAC75"/>
<path fill-rule="evenodd" clip-rule="evenodd" d="M271.61 277.536C309.624 239.522 346.61 200.131 346.61 160.412C346.61 120.693 313.032 88.4946 271.61 88.4946C230.189 88.4946 196.61 120.693 196.61 160.412C196.61 200.131 246.953 252.878 271.61 277.536ZM272.638 193.289C290.795 193.289 305.514 178.11 305.514 159.385C305.514 140.66 290.795 125.481 272.638 125.481C254.48 125.481 239.761 140.66 239.761 159.385C239.761 178.11 254.48 193.289 272.638 193.289Z" fill="#FFAC75"/>
<path fill-rule="evenodd" clip-rule="evenodd" d="M385.61 277.536C423.624 239.522 460.61 200.131 460.61 160.412C460.61 120.693 427.032 88.4946 385.61 88.4946C344.189 88.4946 310.61 120.693 310.61 160.412C310.61 200.131 360.953 252.878 385.61 277.536ZM386.638 193.289C404.795 193.289 419.514 178.11 419.514 159.385C419.514 140.66 404.795 125.481 386.638 125.481C368.48 125.481 353.761 140.66 353.761 159.385C353.761 178.11 368.48 193.289 386.638 193.289Z" fill="#FFAC75"/>
<path d="M478.018 235.515V51.1951H520.002V148.219L559.298 104.955H607.938L562.242 157.691L612.034 235.515H562.37L531.778 185.083L520.002 197.627V235.515H478.018Z" fill="#FFAC75"/>
</svg>
